<mxfile host="app.diagrams.net" modified="2024-01-01T00:00:00.000Z" agent="5.0" etag="xxx" version="22.1.16" type="device">
  <diagram name="写真共有アプリ構成図" id="architecture">
    <mxGraphModel dx="1422" dy="794" grid="1" gridSize="10" guides="1" tooltips="1" connect="1" arrows="1" fold="1" page="1" pageScale="1" pageWidth="1200" pageHeight="800" math="0" shadow="0">
      <root>
        <mxCell id="0" />
        <mxCell id="1" parent="0" />
        
        <!-- Title -->
        <mxCell id="title" value="写真共有アプリ - システム構成図" style="text;html=1;strokeColor=none;fillColor=none;align=center;verticalAlign=middle;whiteSpace=wrap;rounded=0;fontSize=24;fontStyle=1;fontColor=#2F5233;" vertex="1" parent="1">
          <mxGeometry x="400" y="30" width="400" height="40" as="geometry" />
        </mxCell>

        <!-- Docker Container -->
        <mxCell id="docker-container" value="" style="rounded=1;whiteSpace=wrap;html=1;fillColor=#E8F4FD;strokeColor=#1BA1E2;strokeWidth=3;dashed=1;" vertex="1" parent="1">
          <mxGeometry x="100" y="120" width="1000" height="600" as="geometry" />
        </mxCell>
        
        <!-- Docker Icon and Label -->
        <mxCell id="docker-icon" value="" style="image;html=1;image=img/lib/mscae/Docker.svg;aspect=fixed;" vertex="1" parent="1">
          <mxGeometry x="110" y="130" width="40" height="33" as="geometry" />
        </mxCell>
        <mxCell id="docker-label" value="Docker Compose 環境" style="text;html=1;strokeColor=none;fillColor=none;align=left;verticalAlign=middle;whiteSpace=wrap;rounded=0;fontSize=16;fontStyle=1;fontColor=#1BA1E2;" vertex="1" parent="1">
          <mxGeometry x="160" y="135" width="200" height="25" as="geometry" />
        </mxCell>

        <!-- User -->
        <mxCell id="user-icon" value="" style="image;html=1;image=img/lib/mscae/Person.svg;aspect=fixed;" vertex="1" parent="1">
          <mxGeometry x="20" y="350" width="50" height="50" as="geometry" />
        </mxCell>
        <mxCell id="user-label" value="開発者" style="text;html=1;strokeColor=none;fillColor=none;align=center;verticalAlign=top;whiteSpace=wrap;rounded=0;fontSize=12;fontStyle=1;" vertex="1" parent="1">
          <mxGeometry x="20" y="405" width="50" height="20" as="geometry" />
        </mxCell>

        <!-- React Frontend -->
        <mxCell id="frontend-container" value="" style="rounded=1;whiteSpace=wrap;html=1;fillColor=#D5E8D4;strokeColor=#82B366;strokeWidth=2;" vertex="1" parent="1">
          <mxGeometry x="150" y="200" width="180" height="120" as="geometry" />
        </mxCell>
        <mxCell id="frontend-icon" value="" style="image;html=1;image=img/lib/mscae/WebApp.svg;aspect=fixed;" vertex="1" parent="1">
          <mxGeometry x="160" y="210" width="40" height="40" as="geometry" />
        </mxCell>
        <mxCell id="frontend-label" value="React Frontend" style="text;html=1;strokeColor=none;fillColor=none;align=left;verticalAlign=middle;whiteSpace=wrap;rounded=0;fontSize=14;fontStyle=1;" vertex="1" parent="1">
          <mxGeometry x="210" y="220" width="110" height="20" as="geometry" />
        </mxCell>
        <mxCell id="frontend-port" value="ポート: 3000" style="text;html=1;strokeColor=none;fillColor=none;align=center;verticalAlign=middle;whiteSpace=wrap;rounded=0;fontSize=11;fontColor=#82B366;" vertex="1" parent="1">
          <mxGeometry x="160" y="280" width="160" height="20" as="geometry" />
        </mxCell>

        <!-- Flask Backend -->
        <mxCell id="backend-container" value="" style="rounded=1;whiteSpace=wrap;html=1;fillColor=#FFF2CC;strokeColor=#D6B656;strokeWidth=2;" vertex="1" parent="1">
          <mxGeometry x="400" y="200" width="180" height="120" as="geometry" />
        </mxCell>
        <mxCell id="backend-icon" value="" style="image;html=1;image=img/lib/mscae/API_Management.svg;aspect=fixed;" vertex="1" parent="1">
          <mxGeometry x="410" y="210" width="40" height="40" as="geometry" />
        </mxCell>
        <mxCell id="backend-label" value="Flask Backend" style="text;html=1;strokeColor=none;fillColor=none;align=left;verticalAlign=middle;whiteSpace=wrap;rounded=0;fontSize=14;fontStyle=1;" vertex="1" parent="1">
          <mxGeometry x="460" y="220" width="110" height="20" as="geometry" />
        </mxCell>
        <mxCell id="backend-port" value="ポート: 5000" style="text;html=1;strokeColor=none;fillColor=none;align=center;verticalAlign=middle;whiteSpace=wrap;rounded=0;fontSize=11;fontColor=#D6B656;" vertex="1" parent="1">
          <mxGeometry x="410" y="280" width="160" height="20" as="geometry" />
        </mxCell>

        <!-- DynamoDB Local -->
        <mxCell id="dynamodb-container" value="" style="rounded=1;whiteSpace=wrap;html=1;fillColor=#F8CECC;strokeColor=#B85450;strokeWidth=2;" vertex="1" parent="1">
          <mxGeometry x="650" y="200" width="180" height="120" as="geometry" />
        </mxCell>
        <mxCell id="dynamodb-icon" value="" style="image;html=1;image=img/lib/mscae/Database.svg;aspect=fixed;" vertex="1" parent="1">
          <mxGeometry x="660" y="210" width="40" height="40" as="geometry" />
        </mxCell>
        <mxCell id="dynamodb-label" value="DynamoDB Local" style="text;html=1;strokeColor=none;fillColor=none;align=left;verticalAlign=middle;whiteSpace=wrap;rounded=0;fontSize=14;fontStyle=1;" vertex="1" parent="1">
          <mxGeometry x="710" y="220" width="110" height="20" as="geometry" />
        </mxCell>
        <mxCell id="dynamodb-port" value="ポート: 8000" style="text;html=1;strokeColor=none;fillColor=none;align=center;verticalAlign=middle;whiteSpace=wrap;rounded=0;fontSize=11;fontColor=#B85450;" vertex="1" parent="1">
          <mxGeometry x="660" y="280" width="160" height="20" as="geometry" />
        </mxCell>

        <!-- LocalStack S3 -->
        <mxCell id="localstack-container" value="" style="rounded=1;whiteSpace=wrap;html=1;fillColor=#FFE6CC;strokeColor=#D79B00;strokeWidth=2;" vertex="1" parent="1">
          <mxGeometry x="650" y="380" width="180" height="120" as="geometry" />
        </mxCell>
        <mxCell id="localstack-icon" value="" style="image;html=1;image=img/lib/mscae/Storage.svg;aspect=fixed;" vertex="1" parent="1">
          <mxGeometry x="660" y="390" width="40" height="40" as="geometry" />
        </mxCell>
        <mxCell id="localstack-label" value="LocalStack (S3)" style="text;html=1;strokeColor=none;fillColor=none;align=left;verticalAlign=middle;whiteSpace=wrap;rounded=0;fontSize=14;fontStyle=1;" vertex="1" parent="1">
          <mxGeometry x="710" y="400" width="110" height="20" as="geometry" />
        </mxCell>
        <mxCell id="localstack-port" value="ポート: 4566" style="text;html=1;strokeColor=none;fillColor=none;align=center;verticalAlign=middle;whiteSpace=wrap;rounded=0;fontSize=11;fontColor=#D79B00;" vertex="1" parent="1">
          <mxGeometry x="660" y="460" width="160" height="20" as="geometry" />
        </mxCell>

        <!-- Batch Scripts -->
        <mxCell id="scripts-container" value="" style="rounded=1;whiteSpace=wrap;html=1;fillColor=#E1D5E7;strokeColor=#9673A6;strokeWidth=2;" vertex="1" parent="1">
          <mxGeometry x="150" y="550" width="200" height="120" as="geometry" />
        </mxCell>
        <mxCell id="scripts-icon" value="" style="image;html=1;image=img/lib/mscae/Command_Line.svg;aspect=fixed;" vertex="1" parent="1">
          <mxGeometry x="160" y="560" width="40" height="40" as="geometry" />
        </mxCell>
        <mxCell id="scripts-label" value="管理スクリプト" style="text;html=1;strokeColor=none;fillColor=none;align=left;verticalAlign=middle;whiteSpace=wrap;rounded=0;fontSize=14;fontStyle=1;" vertex="1" parent="1">
          <mxGeometry x="210" y="570" width="130" height="20" as="geometry" />
        </mxCell>
        <mxCell id="scripts-list" value="• setup-dev.bat&#xa;• start-dev.bat&#xa;• stop-dev.bat&#xa;• clean-dev.bat" style="text;html=1;strokeColor=none;fillColor=none;align=left;verticalAlign=top;whiteSpace=wrap;rounded=0;fontSize=10;" vertex="1" parent="1">
          <mxGeometry x="160" y="600" width="180" height="60" as="geometry" />
        </mxCell>

        <!-- Data Directory -->
        <mxCell id="data-container" value="" style="rounded=1;whiteSpace=wrap;html=1;fillColor=#F5F5F5;strokeColor=#666666;strokeWidth=2;" vertex="1" parent="1">
          <mxGeometry x="400" y="550" width="150" height="80" as="geometry" />
        </mxCell>
        <mxCell id="data-icon" value="" style="image;html=1;image=img/lib/mscae/Folder.svg;aspect=fixed;" vertex="1" parent="1">
          <mxGeometry x="410" y="560" width="30" height="30" as="geometry" />
        </mxCell>
        <mxCell id="data-label" value="データディレクトリ" style="text;html=1;strokeColor=none;fillColor=none;align=left;verticalAlign=middle;whiteSpace=wrap;rounded=0;fontSize=12;fontStyle=1;" vertex="1" parent="1">
          <mxGeometry x="450" y="570" width="90" height="20" as="geometry" />
        </mxCell>
        <mxCell id="data-desc" value="LocalStack永続化" style="text;html=1;strokeColor=none;fillColor=none;align=center;verticalAlign=middle;whiteSpace=wrap;rounded=0;fontSize=10;fontColor=#666666;" vertex="1" parent="1">
          <mxGeometry x="410" y="600" width="130" height="20" as="geometry" />
        </mxCell>

        <!-- Connections with better styling -->
        <!-- User to Frontend -->
        <mxCell id="user-frontend" value="ブラウザアクセス" style="endArrow=classic;html=1;rounded=0;exitX=1;exitY=0.5;exitDx=0;exitDy=0;entryX=0;entryY=0.5;entryDx=0;entryDy=0;strokeColor=#82B366;strokeWidth=3;labelBackgroundColor=#ffffff;" edge="1" parent="1" source="user-icon" target="frontend-container">
          <mxGeometry width="50" height="50" relative="1" as="geometry">
            <mxPoint x="80" y="375" as="sourcePoint" />
            <mxPoint x="150" y="260" as="targetPoint" />
          </mxGeometry>
        </mxCell>

        <!-- Frontend to Backend -->
        <mxCell id="frontend-backend" value="REST API" style="endArrow=classic;html=1;rounded=0;exitX=1;exitY=0.5;exitDx=0;exitDy=0;entryX=0;entryY=0.5;entryDx=0;entryDy=0;strokeColor=#D6B656;strokeWidth=3;labelBackgroundColor=#ffffff;" edge="1" parent="1" source="frontend-container" target="backend-container">
          <mxGeometry width="50" height="50" relative="1" as="geometry">
            <mxPoint x="330" y="260" as="sourcePoint" />
            <mxPoint x="400" y="260" as="targetPoint" />
          </mxGeometry>
        </mxCell>

        <!-- Backend to DynamoDB -->
        <mxCell id="backend-dynamodb" value="データベース" style="endArrow=classic;html=1;rounded=0;exitX=1;exitY=0.25;exitDx=0;exitDy=0;entryX=0;entryY=0.5;entryDx=0;entryDy=0;strokeColor=#B85450;strokeWidth=3;labelBackgroundColor=#ffffff;" edge="1" parent="1" source="backend-container" target="dynamodb-container">
          <mxGeometry width="50" height="50" relative="1" as="geometry">
            <mxPoint x="580" y="230" as="sourcePoint" />
            <mxPoint x="650" y="260" as="targetPoint" />
          </mxGeometry>
        </mxCell>

        <!-- Backend to LocalStack -->
        <mxCell id="backend-localstack" value="ファイルストレージ" style="endArrow=classic;html=1;rounded=0;exitX=1;exitY=0.75;exitDx=0;exitDy=0;entryX=0;entryY=0.5;entryDx=0;entryDy=0;strokeColor=#D79B00;strokeWidth=3;labelBackgroundColor=#ffffff;" edge="1" parent="1" source="backend-container" target="localstack-container">
          <mxGeometry width="50" height="50" relative="1" as="geometry">
            <mxPoint x="580" y="290" as="sourcePoint" />
            <mxPoint x="650" y="440" as="targetPoint" />
          </mxGeometry>
        </mxCell>

        <!-- Scripts to Docker -->
        <mxCell id="scripts-docker" value="環境制御" style="endArrow=classic;html=1;rounded=0;exitX=0.5;exitY=0;exitDx=0;exitDy=0;entryX=0.2;entryY=1;entryDx=0;entryDy=0;strokeColor=#9673A6;strokeWidth=3;dashed=1;labelBackgroundColor=#ffffff;" edge="1" parent="1" source="scripts-container" target="docker-container">
          <mxGeometry width="50" height="50" relative="1" as="geometry">
            <mxPoint x="250" y="550" as="sourcePoint" />
            <mxPoint x="300" y="500" as="targetPoint" />
          </mxGeometry>
        </mxCell>

        <!-- LocalStack to Data -->
        <mxCell id="localstack-data-conn" value="データ永続化" style="endArrow=classic;html=1;rounded=0;exitX=0;exitY=1;exitDx=0;exitDy=0;entryX=1;entryY=0.5;entryDx=0;entryDy=0;strokeColor=#666666;strokeWidth=2;dashed=1;labelBackgroundColor=#ffffff;" edge="1" parent="1" source="localstack-container" target="data-container">
          <mxGeometry width="50" height="50" relative="1" as="geometry">
            <mxPoint x="650" y="500" as="sourcePoint" />
            <mxPoint x="550" y="590" as="targetPoint" />
          </mxGeometry>
        </mxCell>

        <!-- Port indicators -->
        <mxCell id="port-indicator-3000" value=":3000" style="ellipse;whiteSpace=wrap;html=1;aspect=fixed;fillColor=#82B366;strokeColor=none;fontColor=white;fontSize=10;fontStyle=1;" vertex="1" parent="1">
          <mxGeometry x="300" y="180" width="30" height="30" as="geometry" />
        </mxCell>
        
        <mxCell id="port-indicator-5000" value=":5000" style="ellipse;whiteSpace=wrap;html=1;aspect=fixed;fillColor=#D6B656;strokeColor=none;fontColor=white;fontSize=10;fontStyle=1;" vertex="1" parent="1">
          <mxGeometry x="550" y="180" width="30" height="30" as="geometry" />
        </mxCell>
        
        <mxCell id="port-indicator-8000" value=":8000" style="ellipse;whiteSpace=wrap;html=1;aspect=fixed;fillColor=#B85450;strokeColor=none;fontColor=white;fontSize=10;fontStyle=1;" vertex="1" parent="1">
          <mxGeometry x="800" y="180" width="30" height="30" as="geometry" />
        </mxCell>
        
        <mxCell id="port-indicator-4566" value=":4566" style="ellipse;whiteSpace=wrap;html=1;aspect=fixed;fillColor=#D79B00;strokeColor=none;fontColor=white;fontSize=10;fontStyle=1;" vertex="1" parent="1">
          <mxGeometry x="800" y="360" width="30" height="30" as="geometry" />
        </mxCell>

      </root>
    </mxGraphModel>
  </diagram>
</mxfile>